<?xml version="1.0" standalone="no"?><!DOCTYPE svg PUBLIC "-//W3C//DTD SVG 1.1//EN" "http://www.w3.org/Graphics/SVG/1.1/DTD/svg11.dtd"><svg t="1694847185957" class="icon" viewBox="0 0 1024 1024" version="1.1" xmlns="http://www.w3.org/2000/svg" p-id="8939" xmlns:xlink="http://www.w3.org/1999/xlink" width="200" height="200"><path d="M661.532055 672.753973c-3.086027-3.927671-8.696986-5.049863-13.185754-2.524932l-3.366575 1.683288c-3.927671 1.963836-7.855342 3.647123-12.063562 5.049863s-8.696986 2.524932-13.185753 3.366575c-2.244384 0.280548-4.488767 0.561096-7.013699 0.841644-1.122192 0-2.244384 0.280548-3.647123 0.280548h-6.733151c-1.40274 0-2.805479 0-4.208219-0.280548H596.444932c-0.561096 0-1.40274 0-1.963836-0.280548-1.40274-0.280548-2.524932-0.280548-3.927671-0.561096-10.380274-1.40274-20.760548-4.488767-30.579726-8.977534-10.099726-4.488767-19.638356-10.660822-28.335343-18.516165-8.696986-7.855342-16.271781-17.113425-22.163288-27.774246-5.891507-10.660822-10.099726-22.443836-12.063561-34.787945-0.841644-6.172055-1.40274-12.624658-1.122192-18.796713 0-1.683288 0.280548-3.366575 0.280548-5.049863v-2.244383c0-0.841644 0.280548-1.683288 0.280548-2.524932 0.280548-3.366575 0.841644-6.733151 1.40274-10.099726 4.769315-26.932603 18.235616-53.30411 38.996164-73.223013 5.330411-5.049863 10.94137-9.53863 16.832877-13.74685 5.891507-4.208219 12.34411-7.855342 19.07726-10.94137 6.733151-3.086027 13.466301-5.610959 20.760548-7.574794 7.013699-1.963836 14.307945-3.086027 21.88274-3.927671 3.647123-0.280548 7.294247-0.561096 11.221918-0.561096h8.696986l3.086027 0.280548c8.13589 0.561096 15.991233 1.683288 23.846576 3.647123 15.710685 3.366575 31.140822 9.258082 45.448767 17.113425 28.61589 15.991233 53.023562 40.679452 67.892602 70.417534 7.574795 14.869041 12.905205 30.860274 15.430137 47.412603 0.561096 4.208219 1.122192 8.416438 1.40274 12.624657l0.280548 3.086028 0.280548 3.086027V611.313973c0 1.963836-0.280548 5.330411-0.280548 7.294246-0.280548 4.488767-0.841644 9.258082-1.40274 13.746849-0.561096 4.488767-1.40274 8.977534-2.244383 13.466302-0.841644 4.488767-1.963836 8.977534-3.086028 13.185753-2.244384 8.696986-5.049863 17.393973-8.416438 26.090959-6.733151 16.832877-15.710685 33.104658-26.371507 47.973699-21.602192 29.738082-51.059726 53.865205-84.444931 69.295342-16.832877 7.574795-34.507397 13.185753-52.743014 15.991233-8.977534 1.683288-18.235616 2.524932-27.493699 2.80548H574.001096h-1.122192c-5.049863 0-9.819178-0.280548-14.869041-0.841644-19.638356-1.40274-38.996164-5.049863-58.073425-10.380274-18.796712-5.330411-37.032329-12.905205-54.426301-21.88274-34.507397-18.516164-65.367671-43.765479-89.775342-74.345205-12.063562-15.149589-22.724384-31.701918-31.42137-48.815343-8.696986-17.113425-15.710685-35.349041-20.760548-53.584657-5.049863-18.516164-8.13589-37.312877-9.53863-56.390137l-0.280548-3.647124v-15.991233-1.963835-7.013699c0.280548-9.258082 1.122192-19.07726 2.244383-28.61589 1.122192-9.53863 2.805479-19.357808 4.769315-28.896439 1.963836-9.53863 4.208219-19.07726 7.013699-28.61589 5.330411-18.796712 12.063562-37.032329 19.918904-54.145753 15.991233-34.226849 36.751781-64.806575 61.720548-89.214247 6.172055-6.172055 12.624658-11.783014 19.357808-17.393973 6.733151-5.330411 13.746849-10.380274 21.041096-15.149589 7.013699-4.769315 14.588493-8.977534 22.163288-12.905205 3.647123-1.963836 7.574795-3.927671 11.502465-5.610959l5.891507-2.524932 5.891507-2.524931c7.855342-3.366575 15.991233-6.172055 24.407671-8.696986 1.963836-0.561096 4.208219-1.122192 6.172055-1.963836 1.963836-0.561096 4.208219-1.122192 6.172055-1.683288 4.208219-1.122192 8.416438-2.244384 12.624658-3.086027 1.963836-0.561096 4.208219-0.841644 6.452602-1.40274 2.244384-0.561096 4.208219-0.841644 6.452603-1.402739 2.244384-0.280548 4.208219-0.841644 6.452603-1.122192l3.086027-0.561096 3.086028-0.561096c2.244384-0.280548 4.208219-0.561096 6.452602-0.841644 2.524932-0.280548 4.769315-0.561096 7.294247-0.841644 1.963836-0.280548 5.330411-0.561096 7.294246-0.841644 1.40274-0.280548 3.086027-0.280548 4.488768-0.561095l3.086027-0.280548 1.40274-0.280548h1.683287c2.524932-0.280548 4.769315-0.280548 7.294247-0.561096l3.647123-0.280548h2.80548c1.963836 0 4.208219-0.280548 6.172054-0.280548 8.13589-0.280548 16.552329-0.280548 24.68822 0 16.271781 0.561096 32.263014 2.524932 47.69315 5.330411 31.140822 5.891507 60.317808 15.710685 86.689315 28.896438 26.652055 12.905205 50.218082 28.896438 70.978631 46.290411 1.40274 1.122192 2.524932 2.244384 3.927671 3.366576 1.122192 1.122192 2.524932 2.244384 3.647123 3.366575 2.524932 2.244384 4.769315 4.488767 7.294247 6.733151 2.524932 2.244384 4.769315 4.488767 7.013698 6.73315 2.244384 2.244384 4.488767 4.488767 6.733151 7.013699 8.696986 9.258082 16.832877 18.516164 24.127123 28.054794 14.588493 18.796712 26.371507 37.873973 35.629589 55.829041l1.683288 3.366576 1.683288 3.366575c1.122192 2.244384 2.244384 4.488767 3.086027 6.452603 1.122192 2.244384 1.963836 4.208219 3.086027 6.452603 0.841644 2.244384 1.963836 4.208219 2.80548 6.452602 3.366575 8.416438 6.733151 16.271781 9.258082 24.127124 4.208219 12.34411 7.294247 23.285479 9.819178 32.824109 0.841644 3.927671 4.488767 6.452603 8.416438 5.891507 4.208219-0.280548 7.294247-3.647123 7.294247-7.855342 0.280548-10.380274 0-22.443836-1.122192-36.190685-1.683288-17.113425-4.488767-36.751781-10.099726-58.634521-5.610959-21.602192-14.027397-45.448767-26.371507-70.136986s-28.335342-50.218082-49.09589-75.186849c-8.13589-9.819178-17.113425-19.357808-26.652055-28.615891 14.307945-56.951233-17.393973-106.327671-17.393972-106.327671-54.706849-3.366575-89.494795 17.113425-102.4 26.371507-2.244384-0.841644-4.208219-1.963836-6.452603-2.80548-9.258082-3.647123-18.796712-7.294247-28.615891-10.380274-9.819178-3.086027-19.918904-5.891507-30.299178-8.416438-10.380274-2.524932-20.760548-4.488767-31.421369-6.172055-1.963836-0.280548-3.647123-0.561096-5.610959-0.841644-24.127123-76.028493-92.580822-108.010959-92.580822-108.010959-76.589589 48.534795-90.897534 116.427397-90.897535 116.427398 0.561096 1.122192 1.40274 2.244384 1.963836 3.086027-5.049863 1.40274-10.380274 3.086027-15.430137 4.488767-5.891507 1.683288-11.783014 3.927671-17.393973 6.172055-5.891507 2.244384-11.502466 4.488767-17.393972 7.013699-11.502466 5.049863-23.004932 10.660822-34.226849 16.832876s-22.163288 13.185753-32.82411 20.760548c-0.280548 0.280548-0.561096 0.561096-1.122192 0.841644l-0.841644-2.524931c-105.766575-40.398904-200.030685 8.13589-200.030685 8.13589-8.696986 112.780274 42.36274 183.478356 52.462466 196.383562-2.524932 7.013699-4.769315 14.027397-7.013698 21.041096-7.855342 25.529863-13.746849 51.620822-17.393973 78.833972-0.561096 3.927671-1.122192 7.855342-1.40274 11.783014C59.756712 540.335342 30.860274 639.368767 30.860274 639.368767c81.639452 93.983562 176.745205 99.594521 176.745205 99.594521l0.280548-0.280548c12.063562 21.602192 26.090959 42.082192 41.801644 61.44 6.733151 8.13589 13.466301 15.710685 20.760548 23.285479-29.738082 85.006027 4.208219 155.984658 4.208219 155.984658 90.897534 3.366575 150.654247-39.837808 163.278904-49.656987 8.977534 3.086027 18.235616 5.891507 27.493699 8.135891 28.054795 7.294247 56.670685 11.502466 85.006027 12.624657 7.013699 0.280548 14.307945 0.561096 21.321644 0.280548h10.099726l4.488767-0.280548v0.280548c42.923836 61.159452 118.110685 69.856438 118.110685 69.856439 60.598356-63.684384 56.670685-127.088219 56.670685-127.08822-0.561096-0.561096-1.122192-0.841644-1.683287-1.402739 11.783014-8.13589 23.004932-17.113425 33.665753-26.652055 21.321644-19.357808 40.118356-41.521096 55.829041-65.367671l4.208219-6.733151c60.598356 3.366575 103.522192-37.593425 103.522192-37.593425-11.221918-70.698082-54.987397-100.99726-54.987397-100.99726-0.561096 0-0.841644 0.280548-1.40274 0.280548 0.561096-4.208219 0.841644-8.416438 1.122192-12.624657 0.561096-6.733151 0.561096-13.746849 0.561096-20.48v-8.977535-1.683287l-0.280548-4.20822-0.280548-5.610958c0-1.963836-0.280548-3.647123-0.561096-5.330411-0.280548-1.683288-0.280548-3.647123-0.561096-5.330411l-0.561096-5.330411-0.841644-5.330411c-1.122192-7.013699-2.244384-13.746849-3.927671-20.760548-6.452603-27.213151-17.113425-53.023562-30.860274-76.309041-14.027397-23.285479-31.42137-43.765479-51.059726-61.159452-19.638356-17.393973-41.801644-31.42137-64.806575-41.801644-23.004932-10.380274-47.412603-17.113425-71.539726-20.199452-12.063562-1.683288-24.127123-2.244384-36.190685-1.963836h-8.977534l-4.488767 0.280548c-1.683288 0-3.366575 0.280548-4.769316 0.280548-6.172055 0.561096-12.34411 1.40274-18.235616 2.524931-24.127123 4.488767-46.570959 13.185753-66.770411 25.249316-19.918904 12.063562-37.312877 26.932603-51.340274 43.765479s-24.968767 35.629589-32.543562 54.987397c-7.574795 19.357808-11.783014 39.55726-12.905205 58.915069-0.280548 4.769315-0.280548 9.819178-0.280548 14.588493v3.647123l0.280548 3.927671c0.280548 2.244384 0.280548 4.769315 0.561096 7.013699 0.841644 9.819178 2.805479 19.357808 5.330411 28.335343 5.330411 18.235616 13.746849 34.787945 24.127123 48.815342 10.380274 14.027397 23.004932 25.529863 36.190685 34.787945 13.185753 8.977534 27.493699 15.430137 41.521096 19.638356s28.054795 5.891507 41.240548 5.891507h7.294246c0.841644 0 1.683288 0 2.524932-0.280548 1.40274 0 2.805479-0.280548 4.208219-0.280548 0.280548 0 0.841644 0 1.122192-0.280548l1.40274-0.280548c0.841644 0 1.683288-0.280548 2.524931-0.280548 1.683288-0.280548 3.086027-0.561096 4.769315-0.841643 1.683288-0.280548 3.086027-0.561096 4.488767-1.122192 3.086027-0.561096 5.891507-1.683288 8.696987-2.524932 5.610959-1.963836 10.94137-4.208219 15.991233-6.73315 5.049863-2.524932 9.53863-5.610959 14.027397-8.416439 1.122192-0.841644 2.524932-1.683288 3.647123-2.805479 4.488767-2.805479 5.049863-9.53863 1.40274-14.027397z" p-id="8940"></path></svg>