<?xml version="1.0" standalone="no"?><!DOCTYPE svg PUBLIC "-//W3C//DTD SVG 1.1//EN" "http://www.w3.org/Graphics/SVG/1.1/DTD/svg11.dtd"><svg t="1700571618920" class="icon" viewBox="0 0 1024 1024" version="1.1" xmlns="http://www.w3.org/2000/svg" p-id="4113" xmlns:xlink="http://www.w3.org/1999/xlink" width="200" height="200"><path d="M393.6 899.2H147.2c-19.2 0-32-16-32-32V115.2c0-19.2 16-32 32-32h729.6c19.2 0 32 16 32 32v252.8c0 9.6 6.4 16 16 16s16-6.4 16-16V115.2c0-35.2-28.8-64-64-64H147.2c-35.2 0-64 28.8-64 64v752c0 35.2 28.8 64 64 64h246.4c9.6 0 16-6.4 16-16s-6.4-16-16-16z" p-id="4114"></path><path d="M809.6 230.4c0-9.6-6.4-16-16-16H240c-9.6 0-16 6.4-16 16s6.4 16 16 16h553.6c6.4 0 16-6.4 16-16zM240 393.6c-9.6 0-16 6.4-16 16s6.4 16 16 16h259.2c9.6 0 16-6.4 16-16s-6.4-16-16-16H240zM960 531.2c0-64-121.6-99.2-240-99.2S480 467.2 480 531.2v345.6c0 64 121.6 99.2 240 99.2s240-35.2 240-99.2V540.8v-3.2-6.4z m-444.8 166.4c35.2 19.2 105.6 54.4 192 54.4s150.4-9.6 220.8-60.8v83.2c-73.6 57.6-131.2 67.2-220.8 67.2-92.8 0-169.6-44.8-192-57.6v-86.4zM928 652.8c-73.6 57.6-131.2 67.2-220.8 70.4-92.8 0-169.6-44.8-192-57.6v-76.8c44.8 32 128 48 208 48s163.2-16 208-48v64z m-208-188.8c128 0 208 38.4 208 67.2s-80 67.2-208 67.2-208-38.4-208-67.2 80-67.2 208-67.2z m0 476.8c-128 0-208-38.4-208-67.2v-51.2c35.2 19.2 105.6 54.4 192 54.4s150.4-9.6 220.8-60.8v57.6c3.2 28.8-76.8 67.2-204.8 67.2z" p-id="4115"></path></svg>