<?xml version="1.0" standalone="no"?><!DOCTYPE svg PUBLIC "-//W3C//DTD SVG 1.1//EN" "http://www.w3.org/Graphics/SVG/1.1/DTD/svg11.dtd"><svg t="1694847123362" class="icon" viewBox="0 0 1024 1024" version="1.1" xmlns="http://www.w3.org/2000/svg" p-id="7404" xmlns:xlink="http://www.w3.org/1999/xlink" width="200" height="200"><path d="M268.032 745.642667C143.744 745.642667 42.666667 645.376 42.666667 522.154667 42.666667 398.933333 143.786667 298.666667 268.032 298.666667a224.938667 224.938667 0 0 1 158.421333 64.554666l0.170667 0.170667 60.8 60.288-62.933333 62.464-60.714667-60.202667a137.088 137.088 0 0 0-192.554667 1.066667 134.4 134.4 0 0 0 0.64 190.933333 137.088 137.088 0 0 0 192.554667-0.213333L426.666667 555.989333l62.933333 62.421334-62.293333 61.781333a224.853333 224.853333 0 0 1-159.317334 65.450667z" p-id="7405"></path><path d="M758.485333 745.642667a221.184 221.184 0 0 1-156.416-64.341334l-0.426666-0.426666-156.672-159.402667 155.989333-157.354667A221.013333 221.013333 0 0 1 758.485333 298.666667C881.365333 298.666667 981.333333 398.933333 981.333333 522.154667c0 123.221333-99.968 223.488-222.848 223.488zM664.106667 618.666667a134.442667 134.442667 0 0 0 190.293333-1.493334 135.466667 135.466667 0 0 0-0.896-190.848 134.442667 134.442667 0 0 0-190.293333 0.256l-94.336 95.189334 95.232 96.853333z" p-id="7406"></path></svg>