<?xml version="1.0" standalone="no"?><!DOCTYPE svg PUBLIC "-//W3C//DTD SVG 1.1//EN" "http://www.w3.org/Graphics/SVG/1.1/DTD/svg11.dtd"><svg t="1694846988961" class="icon" viewBox="0 0 1024 1024" version="1.1" xmlns="http://www.w3.org/2000/svg" p-id="4093" xmlns:xlink="http://www.w3.org/1999/xlink" width="200" height="200"><path d="M844.288 444.928l-332.8-187.904-332.8 190.976v226.304c0 175.616-9.216 154.624 187.904 264.704l144.896 83.968v1.024l1.024-0.512 215.04-123.904c130.56-71.168 116.224-67.584 116.224-224.768V444.928z m-88.576 100.864L512 409.088v77.824l243.2 138.752v148.48l-242.688 141.312-229.376-131.072c-17.408-11.264-13.312-8.192-13.312-54.784l241.664 137.216 1.024-331.264-242.176 141.312 1.024-179.712c80.896-44.032 160.256-91.648 241.152-135.168v-0.512L755.712 501.76v44.032z" p-id="4094"></path><path d="M750.08 138.752v98.816L607.232 158.72V51.712L512 0 416.768 55.296V158.72L277.504 238.08V138.752L178.688 190.464v211.968L512 211.456v-0.512 0.512l333.312 189.44V190.464l-95.232-51.712zM512 209.408v-1.536 1.536z m0-23.552V184.32v1.536z m0-185.344v0.512-0.512z m0 3.072v2.56-2.56z m0 4.608v1.024-1.024z m0 18.944v6.144-6.144z m0 16.384V46.08v-2.56z m0 9.728v5.12-5.12zM510.976 867.84l202.752-113.152-0.512-102.912-201.216-116.224-1.024 331.264zM311.296 601.6l200.192-114.688V409.6l-148.48 83.968c-63.488 36.864-49.664 10.24-51.712 108.032z" p-id="4095"></path></svg>